<svg width="160" height="42" fill="none" xmlns="http://www.w3.org/2000/svg"><path d="M123.42 20.913a15.921 15.921 0 0 1-1.234 6.225 16.213 16.213 0 0 1-3.577 5.29 16.66 16.66 0 0 1-5.376 3.552 16.972 16.972 0 0 1-6.358 1.27 16.964 16.964 0 0 1-6.37-1.204 16.659 16.659 0 0 1-5.414-3.494 16.232 16.232 0 0 1-3.632-5.253 15.93 15.93 0 0 1-1.299-6.212 15.928 15.928 0 0 1 1.234-6.225 16.23 16.23 0 0 1 3.577-5.29 16.664 16.664 0 0 1 5.376-3.551 16.973 16.973 0 0 1 12.728-.067 16.66 16.66 0 0 1 5.414 3.494 16.23 16.23 0 0 1 3.632 5.253 15.927 15.927 0 0 1 1.299 6.212Zm-8.05.087a8.57 8.57 0 1 0-17.141 0 8.57 8.57 0 0 0 17.141 0Zm-31.74.2c2.22 1.707 3.313 3.85 3.28 6.43-.073 5.747-3.13 8.703-9.17 8.87-5.367.147-10.74.16-16.12.04-.333-.007-.5-.177-.5-.51L61.1 5.99c-.007-.3.14-.453.44-.46 8.58-.193 14.147-.213 16.7-.06 5.36.32 8.24 3.073 8.64 8.26.22 2.907-.857 5.173-3.23 6.8-.313.213-.32.437-.02.67Zm-14.51-8.23-.02 4.76a.24.24 0 0 0 .24.24l6.9.03c.334.001.664-.058.973-.174.309-.115.59-.286.826-.501.237-.216.425-.472.554-.754.129-.282.196-.585.197-.891v-.58a2.236 2.236 0 0 0-.737-1.65 2.66 2.66 0 0 0-1.793-.69l-6.9-.03a.24.24 0 0 0-.24.24Zm-.02 11.48v4.38a.43.43 0 0 0 .43.43l6.71-.01c.34 0 .676-.063.99-.186.313-.123.598-.303.838-.53.24-.226.43-.495.558-.791.13-.296.195-.613.194-.933v-.38a2.361 2.361 0 0 0-.76-1.712 2.663 2.663 0 0 0-1.82-.708l-6.71.01a.43.43 0 0 0-.43.43Zm65.6-4.34.01 16.14a.331.331 0 0 1-.33.33l-7.3.03a.328.328 0 0 1-.33-.33V5.75a.33.33 0 0 1 .33-.33l6.29-.03a.33.33 0 0 1 .26.13l13.33 16.8a.329.329 0 0 0 .532-.016.335.335 0 0 0 .058-.194l-.01-16.36a.33.33 0 0 1 .33-.33h7.3a.329.329 0 0 1 .33.33v30.49a.33.33 0 0 1-.33.33l-6.35.06a.33.33 0 0 1-.26-.13l-13.27-16.59a.328.328 0 0 0-.366-.11.328.328 0 0 0-.224.31ZM15.68 15.1l-10.56-.02a.6.6 0 0 0-.6.6L4.5 26.3a.6.6 0 0 0 .6.6l10.56.018a.6.6 0 0 0 .6-.598l.02-10.62a.6.6 0 0 0-.6-.601Zm17.57.009-10.3-.018a.64.64 0 0 0-.64.639l-.02 10.54c0 .353.286.64.64.64l10.3.019a.64.64 0 0 0 .64-.639l.02-10.54a.64.64 0 0 0-.64-.641Zm17.71-.02-10.28-.018a.78.78 0 0 0-.781.778l-.018 10.28c0 .431.348.78.779.782l10.28.018a.78.78 0 0 0 .781-.779l.018-10.28a.78.78 0 0 0-.779-.781Z" fill="#fff"/></svg>